<svg width="24" height="24" viewBox="0 0 24 24" fill="none" xmlns="http://www.w3.org/2000/svg">
<path d="M5.51863 4.3721C7.32634 2.84205 9.62248 2.00123 11.9965 2H11.9998C14.374 2.00045 16.6707 2.84071 18.479 4.3705C20.2873 5.9003 21.4893 8.01984 21.8701 10.35C22.2508 12.6802 21.7854 15.0691 20.5572 17.0894C19.3289 19.1098 17.4179 20.6297 15.1658 21.3775C14.6591 21.4746 14.4787 21.1651 14.4787 20.9C14.4787 20.7913 14.4799 20.601 14.4816 20.3465C14.4851 19.8338 14.4902 19.0609 14.4902 18.1718C14.4902 17.2432 14.1707 16.6389 13.813 16.3294C16.0385 16.084 18.3783 15.2427 18.3783 11.4245C18.3933 10.4349 18.0238 9.47766 17.3467 8.75223C17.4493 8.49868 17.7921 7.48773 17.2473 6.11786C17.2473 6.11786 16.4094 5.85113 14.5002 7.13703C12.8611 6.69135 11.1318 6.69135 9.49273 7.13703C7.58182 5.85113 6.74227 6.11786 6.74227 6.11786C6.19913 7.49103 6.54191 8.50197 6.64458 8.75223C5.96959 9.47754 5.60083 10.4331 5.6146 11.4212C5.6146 15.2312 7.94943 16.084 10.1716 16.3343C9.88518 16.5829 9.6252 17.0209 9.53578 17.6647C8.96615 17.9215 7.51724 18.3611 6.62637 16.8414C6.62637 16.8414 6.09813 15.8865 5.093 15.8157C5.093 15.8157 4.11767 15.8041 5.0251 16.4199C5.0251 16.4199 5.68084 16.7229 6.13456 17.8754C6.13456 17.8754 6.7224 19.6503 9.50432 19.0493C9.50621 19.5226 9.51025 19.9728 9.51338 20.3209C9.51573 20.5832 9.51757 20.7875 9.51757 20.9C9.51757 21.1618 9.33045 21.4697 8.83368 21.3775C6.58194 20.6298 4.67108 19.1101 3.44279 17.0901C2.21451 15.0702 1.74889 12.6817 2.12919 10.3517C2.50949 8.02168 3.71091 5.90216 5.51863 4.3721Z" fill="#666666"/>
<path d="M5.61768 16.3063C5.68226 16.3409 5.76174 16.3261 5.78327 16.2767C5.8081 16.2273 5.75843 16.1614 5.69385 16.1268C5.62927 16.0923 5.55144 16.1054 5.52826 16.1565C5.50508 16.2075 5.5531 16.2717 5.61768 16.3063Z" fill="#666666"/>
<path d="M6.18898 16.7262C6.15469 16.7433 6.11545 16.7481 6.07799 16.7397C6.04054 16.7313 6.00719 16.7102 5.98365 16.6801C5.91907 16.6109 5.90581 16.5154 5.95549 16.4726C6.00517 16.4298 6.09459 16.4495 6.15917 16.5187C6.22375 16.5879 6.23866 16.6833 6.18898 16.7262Z" fill="#666666"/>
<path d="M6.35954 17.2119C6.4175 17.2975 6.52183 17.3403 6.5831 17.2975C6.64271 17.2547 6.64105 17.1427 6.5831 17.0588C6.52514 16.9748 6.42081 16.9336 6.35954 16.9748C6.34352 16.9901 6.33077 17.0086 6.32207 17.0289C6.31336 17.0493 6.30887 17.0712 6.30887 17.0933C6.30887 17.1155 6.31336 17.1374 6.32207 17.1577C6.33077 17.1781 6.34352 17.1965 6.35954 17.2119Z" fill="#666666"/>
<path d="M7.11794 17.8507C7.0633 17.9116 6.95235 17.8952 6.86128 17.8128C6.77021 17.7305 6.74867 17.6185 6.80332 17.5593C6.85796 17.5 6.96891 17.5165 7.0633 17.5971C7.15768 17.6778 7.1759 17.7914 7.11794 17.8507Z" fill="#666666"/>
<path d="M7.61799 18.2524C7.7306 18.2854 7.8432 18.2508 7.86804 18.1734C7.88956 18.0927 7.8167 18.0055 7.70245 17.9692C7.58819 17.933 7.47393 17.9692 7.4524 18.0483C7.43088 18.1273 7.50539 18.2195 7.61799 18.2524Z" fill="#666666"/>
<path d="M8.68609 18.2294C8.68609 18.3101 8.59337 18.3792 8.47414 18.3809C8.35492 18.3825 8.25722 18.3166 8.25722 18.236C8.25722 18.1553 8.34994 18.0861 8.46917 18.0845C8.58839 18.0828 8.68609 18.1471 8.68609 18.2294Z" fill="#666666"/>
<path d="M9.2607 18.287C9.37992 18.2673 9.46272 18.1833 9.44782 18.1026C9.43291 18.0219 9.32528 17.9725 9.20937 17.9939C9.09345 18.0153 9.00734 18.101 9.02225 18.18C9.03715 18.259 9.14147 18.3068 9.2607 18.287Z" fill="#666666"/>
</svg>
