<svg width="125" height="20" viewBox="0 0 125 20" fill="none" xmlns="http://www.w3.org/2000/svg">
<g clip-path="url(#clip0_601_11788)">
<path d="M83.519 3.90226C80.1556 3.90226 79.7991 5.08935 79.41 5.61101C78.6398 4.53483 77.423 3.90226 75.9851 3.90226C74.5102 3.90226 73.5639 3.9803 72.72 4.97023V4.17336H69.9506V15.9334H72.72V8.72456C72.72 7.29101 73.7851 6.26822 75.2845 6.26822C76.6447 6.26822 77.5746 7.36084 77.5746 8.90529V15.9334H80.2744V8.72456C80.2744 7.29101 81.319 6.26822 82.8389 6.26822C84.1786 6.26822 85.1085 7.36084 85.1085 8.90529V15.9334H87.8083V8.44935C87.8083 5.78764 85.9729 3.89815 83.5231 3.89815L83.519 3.90226ZM7.97915 13.7522C6.74193 13.7522 5.84065 13.1895 5.2753 12.3762L11.4409 9.96916L13.4565 9.20104C13.1369 5.90265 10.6748 3.90226 7.83986 3.90226C4.50511 3.90226 1.875 6.49414 1.875 10.0226C1.875 13.6372 4.6444 16.2086 7.99963 16.2086C9.69978 16.2086 11.7441 15.4815 12.7641 14.3889L11.0189 12.5693C10.3594 13.2511 9.06888 13.7522 7.97915 13.7522V13.7522ZM4.57885 10.2526C4.47643 8.34255 5.59075 6.35859 7.95457 6.35859C9.1754 6.35859 10.0562 6.93776 10.6338 7.79214L4.57885 10.2485V10.2526ZM21.6336 16.2086C23.4935 16.2086 25.0585 15.4363 26.1933 14.2287L24.3333 12.6144C23.6738 13.3661 22.6783 13.8426 21.6582 13.8426C19.7286 13.8426 18.1186 12.1133 18.1186 10.0431C18.1186 7.99752 19.7286 6.26822 21.6582 6.26822C22.6578 6.26822 23.6328 6.7447 24.2678 7.45121L26.1277 5.81228C25.0175 4.65395 23.4525 3.90226 21.6828 3.90226C18.2579 3.90226 15.3779 6.69952 15.3779 10.0431C15.3779 13.3867 18.2579 16.2086 21.6377 16.2086H21.6336ZM33.7927 16.2086C37.1971 16.2086 40.0771 13.3867 40.0771 10.0431C40.0771 6.69952 37.1971 3.90226 33.7927 3.90226C30.3883 3.90226 27.5083 6.69952 27.5083 10.0431C27.5083 13.3867 30.3883 16.2086 33.7927 16.2086ZM33.7927 13.8426C31.8427 13.8426 30.2081 12.1133 30.2081 10.0431C30.2081 7.99752 31.8427 6.26822 33.7927 6.26822C35.7223 6.26822 37.3528 7.99752 37.3528 10.0431C37.3528 12.1133 35.7182 13.8426 33.7927 13.8426ZM48.8769 3.90226C47.3325 3.90226 46.1936 4.09531 45.2472 5.04006V4.17336H42.4778V15.9334H45.2472V8.49453C45.4275 7.24172 46.6319 6.26412 48.0822 6.26412C49.5324 6.26412 50.5566 7.40192 50.5566 8.99155V15.9293H53.2318V8.44524C53.2318 5.78353 51.4415 3.89404 48.8769 3.89404V3.90226ZM64.166 4.17747V11.6163C63.9857 12.865 62.7813 13.8467 61.331 13.8467C59.8808 13.8467 58.8566 12.7089 58.8566 11.1193V4.18157H56.1814V11.6656C56.1814 14.3273 57.9717 16.2168 60.5363 16.2168C62.0807 16.2168 63.3507 15.921 64.166 15.042V15.9416H66.9354V4.18157H64.166V4.17747Z" fill="#666666"/>
<path fill-rule="evenodd" clip-rule="evenodd" d="M116.813 3.7504C115.134 3.7504 113.614 4.41583 112.491 5.49612C112.983 6.13691 113.372 6.86395 113.634 7.64439C114.355 6.66679 115.511 6.03422 116.813 6.03422C118.997 6.03422 120.767 7.80869 120.767 9.99803C120.767 12.1874 118.997 13.9619 116.813 13.9619C115.511 13.9619 114.351 13.3293 113.634 12.3517C113.372 13.1362 112.983 13.8592 112.491 14.4999C113.614 15.5802 115.134 16.2457 116.813 16.2457C120.255 16.2457 123.049 13.4484 123.049 9.99393C123.049 6.54356 120.259 3.74219 116.813 3.74219V3.7504ZM96.4403 3.7504C92.9991 3.7504 90.2051 6.54767 90.2051 10.0021C90.2051 13.4525 92.995 16.2539 96.4403 16.2539C99.8816 16.2539 102.676 13.4566 102.676 10.0021C102.676 6.55177 99.8857 3.7504 96.4403 3.7504ZM96.4403 6.03833C94.2568 6.03833 92.487 7.8128 92.487 10.0021C92.487 12.1915 94.2568 13.966 96.4403 13.966C98.6239 13.966 100.394 12.1915 100.394 10.0021C100.394 7.8128 98.6239 6.03833 96.4403 6.03833ZM106.625 3.7504C104.945 3.7504 103.425 4.41583 102.303 5.49612C102.794 6.13691 103.184 6.86395 103.446 7.64439C104.167 6.66679 105.322 6.03422 106.625 6.03422C108.808 6.03422 110.578 7.80869 110.578 9.99803C110.578 12.1874 108.808 13.9619 106.625 13.9619C105.322 13.9619 104.163 13.3293 103.446 12.3517C103.184 13.1362 102.794 13.8592 102.303 14.4999C103.425 15.5802 104.945 16.2457 106.625 16.2457C110.066 16.2457 112.86 13.4484 112.86 9.99393C112.86 6.54356 110.07 3.74219 106.625 3.74219V3.7504Z" fill="#B1B1B1"/>
</g>
<defs>
<clipPath id="clip0_601_11788">
<rect width="121.173" height="12.5" fill="white" transform="translate(1.875 3.75)"/>
</clipPath>
</defs>
</svg>
