<svg width="194" height="20" viewBox="0 0 194 20" fill="none" xmlns="http://www.w3.org/2000/svg">
  <path
    d="M130.63 0.243857C125.249 0.243857 124.679 2.1432 124.056 2.97786C122.824 1.25597 120.877 0.243857 118.576 0.243857C116.216 0.243857 114.702 0.368728 113.352 1.95261V0.677618H108.921V19.4936H113.352V7.95954C113.352 5.66586 115.056 4.0294 117.455 4.0294C119.631 4.0294 121.119 5.77759 121.119 8.24871V19.4936H125.439V7.95954C125.439 5.66586 127.11 4.0294 129.542 4.0294C131.686 4.0294 133.174 5.77759 133.174 8.24871V19.4936H137.493V7.5192C137.493 3.26046 134.557 0.237285 130.637 0.237285L130.63 0.243857ZM9.76663 16.0038C7.78709 16.0038 6.34504 15.1034 5.44047 13.8022L15.3054 9.95089L18.5304 8.7219C18.0191 3.44448 14.0797 0.243857 9.54377 0.243857C4.20817 0.243857 0 4.39087 0 10.0363C0 15.8198 4.43104 19.934 9.79941 19.934C12.5196 19.934 15.7905 18.7707 17.4226 17.0225L14.6303 14.1111C13.575 15.202 11.5102 16.0038 9.76663 16.0038ZM4.32616 10.4044C4.16229 7.34833 5.94519 4.17399 9.72731 4.17399C11.6806 4.17399 13.0899 5.10066 14.0141 6.46766L4.32616 10.3978V10.4044ZM31.6137 19.934C34.5896 19.934 37.0935 18.6984 38.9092 16.7662L35.9333 14.1833C34.878 15.386 33.2852 16.1484 31.6531 16.1484C28.5658 16.1484 25.9897 13.3815 25.9897 10.0692C25.9897 6.79627 28.5658 4.0294 31.6531 4.0294C33.2524 4.0294 34.8125 4.79177 35.8285 5.92218L38.8043 3.2999C37.028 1.44656 34.5241 0.243857 31.6924 0.243857C26.2126 0.243857 21.6046 4.71948 21.6046 10.0692C21.6046 15.4189 26.2126 19.934 31.6203 19.934H31.6137ZM51.0684 19.934C56.5154 19.934 61.1234 15.4189 61.1234 10.0692C61.1234 4.71948 56.5154 0.243857 51.0684 0.243857C45.6213 0.243857 41.0133 4.71948 41.0133 10.0692C41.0133 15.4189 45.6213 19.934 51.0684 19.934ZM51.0684 16.1484C47.9483 16.1484 45.3329 13.3815 45.3329 10.0692C45.3329 6.79627 47.9483 4.0294 51.0684 4.0294C54.1557 4.0294 56.7645 6.79627 56.7645 10.0692C56.7645 13.3815 54.1491 16.1484 51.0684 16.1484ZM75.2031 0.243857C72.7319 0.243857 70.9097 0.552747 69.3955 2.06434V0.677618H64.9645V19.4936H69.3955V7.5915C69.684 5.587 71.6111 4.02283 73.9315 4.02283C76.2519 4.02283 77.8905 5.84331 77.8905 8.38673V19.4871H82.1708V7.51263C82.1708 3.25389 79.3064 0.230713 75.2031 0.230713V0.243857ZM99.6656 0.68419V12.5863C99.3772 14.5842 97.45 16.155 95.1296 16.155C92.8092 16.155 91.1705 14.3345 91.1705 11.7911V0.690762H86.8903V12.6652C86.8903 16.9239 89.7547 19.9471 93.858 19.9471C96.3292 19.9471 98.3612 19.4739 99.6656 18.0675V19.5068H104.097V0.690762H99.6656V0.68419Z"
    fill="#333333"/>
  <path fill-rule="evenodd" clip-rule="evenodd"
        d="M183.901 0.000509983C181.214 0.000509983 178.782 1.06519 176.986 2.79367C177.772 3.81892 178.395 4.98218 178.815 6.23089C179.968 4.66672 181.817 3.65461 183.901 3.65461C187.395 3.65461 190.227 6.49377 190.227 9.99672C190.227 13.4997 187.395 16.3388 183.901 16.3388C181.817 16.3388 179.962 15.3267 178.815 13.7626C178.395 15.0178 177.772 16.1745 176.986 17.1998C178.782 18.9282 181.214 19.9929 183.901 19.9929C189.407 19.9929 193.878 15.5173 193.878 9.99015C193.878 4.46956 189.414 -0.0126343 183.901 -0.0126343V0.000509983ZM151.304 0.000509983C145.798 0.000509983 141.328 4.47613 141.328 10.0033C141.328 15.5239 145.792 20.0061 151.304 20.0061C156.81 20.0061 161.281 15.5305 161.281 10.0033C161.281 4.4827 156.817 0.000509983 151.304 0.000509983ZM151.304 3.66119C147.811 3.66119 144.979 6.50035 144.979 10.0033C144.979 13.5062 147.811 16.3454 151.304 16.3454C154.798 16.3454 157.63 13.5062 157.63 10.0033C157.63 6.50035 154.798 3.66119 151.304 3.66119ZM167.599 0.000509983C164.912 0.000509983 162.48 1.06519 160.684 2.79367C161.471 3.81892 162.093 4.98218 162.513 6.23089C163.667 4.66672 165.515 3.65461 167.599 3.65461C171.093 3.65461 173.925 6.49377 173.925 9.99672C173.925 13.4997 171.093 16.3388 167.599 16.3388C165.515 16.3388 163.66 15.3267 162.513 13.7626C162.093 15.0178 161.471 16.1745 160.684 17.1998C162.48 18.9282 164.912 19.9929 167.599 19.9929C173.105 19.9929 177.576 15.5173 177.576 9.99015C177.576 4.46956 173.112 -0.0126343 167.599 -0.0126343V0.000509983Z"
        fill="#FFC71F"/>
</svg>
